<svg version="1.1" id="Layer_1" xmlns="http://www.w3.org/2000/svg" xmlns:xlink="http://www.w3.org/1999/xlink" x="0px" y="0px"
	 width="100%" viewBox="0 0 633 4500" enable-background="new 0 0 633 4500" xml:space="preserve">
<path fill="#FFFFFF" opacity="1.000000" stroke="none" 
	d="
M1.000000,1798.000000 
	C1.000000,1200.166626 1.004124,602.833313 0.907236,5.500015 
	C0.906628,1.750991 1.750766,0.904553 5.500047,0.906451 
	C213.500000,1.011779 421.500000,1.011779 629.499939,0.906451 
	C633.249207,0.904553 634.092773,1.751055 634.092529,5.500005 
	C633.998413,1502.500000 633.998352,2999.500000 634.092529,4496.500000 
	C634.092773,4500.249023 633.249207,4501.095703 629.499939,4501.093750 
	C421.500000,4500.988281 213.500000,4500.988770 5.500049,4501.093750 
	C1.750767,4501.095703 0.906981,4500.249023 0.907379,4496.500000 
	C1.002755,3597.166748 1.000000,2697.833252 1.000000,1798.000000 
z"/>
<path fill="#000000" opacity="1.000000" stroke="none" 
	d="
M238.745911,3913.250732 
	C228.219727,3900.247314 221.872940,3885.524414 220.235428,3869.495361 
	C217.709320,3844.767334 222.822647,3821.728271 238.737396,3801.618896 
	C252.330582,3784.443359 270.107697,3774.470459 290.876740,3769.063232 
	C291.971771,3768.778320 293.221680,3769.143066 294.362518,3768.966553 
	C296.590118,3768.621826 298.305695,3767.870361 298.056305,3764.955078 
	C297.801544,3761.977051 298.000000,3758.960205 298.000000,3755.960205 
	C298.000000,3668.795654 297.988708,3581.630859 298.043243,3494.466309 
	C298.045319,3491.143311 298.024170,3489.532471 293.600800,3488.566650 
	C274.459717,3484.386719 257.805878,3475.203369 244.884552,3460.258301 
	C233.725739,3447.351807 226.324905,3432.540527 223.938705,3415.370361 
	C221.198425,3395.652588 223.074509,3376.688721 232.576553,3358.950928 
	C246.245605,3333.434814 267.413635,3317.821289 295.778931,3312.075439 
	C297.396942,3311.747559 298.174866,3311.497559 298.015411,3309.780029 
	C297.923370,3308.788574 297.999939,3307.781494 297.999939,3306.781494 
	C298.000000,3203.283936 297.967987,3099.786133 298.126038,2996.288818 
	C298.131897,2992.456787 297.152161,2990.901123 293.576691,2990.149902 
	C275.614777,2986.375488 260.346161,2977.661621 247.847046,2964.286621 
	C235.534027,2951.111084 227.614929,2935.685791 224.987442,2917.692383 
	C222.037689,2897.491699 224.179413,2878.070557 234.030960,2859.923828 
	C246.699387,2836.588623 266.123627,2821.652588 291.759918,2815.197021 
	C296.886139,2813.906250 298.155670,2812.250000 298.135345,2807.119385 
	C297.917877,2752.121338 298.785217,2697.107422 297.717438,2642.129150 
	C297.032562,2606.865967 297.555969,2571.617920 297.016174,2536.368164 
	C296.981140,2534.081787 297.024109,2532.363037 293.841064,2531.914307 
	C279.014954,2529.823242 265.892487,2523.663086 254.061111,2514.577148 
	C236.743774,2501.278076 225.599533,2483.696289 221.517044,2462.577393 
	C217.117889,2439.820068 219.722015,2417.627441 232.210449,2397.168701 
	C241.928680,2381.248535 255.027496,2369.386963 271.875580,2361.651611 
	C278.884369,2358.433594 286.164490,2355.813965 293.928802,2355.038574 
	C295.940918,2354.837646 297.040619,2354.137695 297.001862,2352.035645 
	C296.983398,2351.035889 296.999908,2350.035645 296.999908,2349.035645 
	C296.999969,2259.704346 296.976074,2170.373047 297.074615,2081.041748 
	C297.079285,2076.826660 296.254608,2075.600098 291.556610,2074.706055 
	C278.043518,2072.134766 265.584991,2066.539795 254.536194,2058.056641 
	C236.938843,2044.545654 225.369217,2026.747437 221.415390,2005.277100 
	C216.354202,1977.793701 221.341446,1952.024170 239.723007,1929.616943 
	C253.128372,1913.276001 270.067078,1902.836548 290.408142,1898.627441 
	C296.965973,1897.270508 297.071381,1894.673218 297.066254,1889.684448 
	C296.974945,1801.019897 296.960541,1712.355103 297.123016,1623.690796 
	C297.130707,1619.505493 295.955109,1617.787476 292.030548,1616.980225 
	C274.716095,1613.419067 259.999115,1604.942017 247.859802,1592.256836 
	C235.062149,1578.883667 226.722733,1563.169067 223.943283,1544.597900 
	C220.457947,1521.310303 224.209122,1499.421265 237.157852,1479.759033 
	C249.964890,1460.312134 268.127014,1447.617676 290.855743,1442.180420 
	C295.722076,1441.016235 297.130463,1439.505127 297.121552,1434.517700 
	C296.955841,1341.853516 296.961487,1249.188721 297.130615,1156.524536 
	C297.137939,1152.515137 295.978699,1150.765747 292.355804,1150.035767 
	C273.382538,1146.212036 257.620148,1136.616455 244.954239,1122.279053 
	C233.658066,1109.492188 226.388855,1094.588623 223.935028,1077.433960 
	C221.037903,1057.179810 223.176910,1037.690308 233.130310,1019.700867 
	C245.904755,996.612549 265.256531,981.471191 291.014069,975.130249 
	C295.430023,974.043213 297.154175,972.867798 297.143555,967.848511 
	C296.947601,875.017700 296.954193,782.186279 297.148102,689.355469 
	C297.156952,685.136414 295.687561,683.751587 292.187225,683.026306 
	C273.252350,679.102722 257.472778,669.528137 244.830933,655.164246 
	C233.674469,642.488098 226.398666,627.719482 223.973755,610.760559 
	C221.084320,590.552979 223.077042,571.095703 233.041351,552.999329 
	C245.885132,529.673462 265.225006,514.413879 291.188812,508.157623 
	C295.898071,507.022827 297.121094,505.414185 297.116150,500.680054 
	C296.972595,362.683350 297.031738,224.686447 296.870605,86.689774 
	C296.864838,81.758369 298.110443,80.385445 302.832581,80.909927 
	C306.783752,81.348770 310.834503,81.189812 314.818146,80.935341 
	C317.604553,80.757355 318.324829,81.860626 318.019836,84.337044 
	C317.898499,85.322067 318.000000,86.334541 318.000000,87.334518 
	C318.000031,224.998047 318.017120,362.661560 317.917999,500.325043 
	C317.915009,504.492126 318.575470,505.707520 323.296265,506.239410 
	C340.244446,508.149048 355.529694,514.446716 368.980255,525.331177 
	C379.456573,533.808838 387.545441,544.005371 393.401520,555.967590 
	C398.932068,567.264893 401.823547,579.180847 402.156982,591.945801 
	C402.583344,608.267517 399.695282,623.618103 391.983246,637.984070 
	C378.672607,662.778992 357.690704,677.487305 330.630188,683.836609 
	C328.351532,684.371216 325.848816,685.317383 323.435364,684.940674 
	C318.726013,684.205505 317.896759,686.209534 317.902863,690.572205 
	C318.031250,782.736572 318.032837,874.901245 317.899841,967.065613 
	C317.893402,971.520569 318.549438,972.748230 323.538635,973.251343 
	C339.850861,974.896362 354.602295,981.161560 367.665375,991.180054 
	C378.854126,999.761108 387.482880,1010.509216 393.538208,1023.166687 
	C398.883545,1034.340088 401.788239,1046.092529 402.165375,1058.688599 
	C402.659576,1075.193848 399.879913,1090.827515 391.899139,1105.191895 
	C377.865784,1130.449829 356.640472,1146.029663 327.932648,1151.064697 
	C325.346710,1151.518188 322.823151,1152.233521 320.184143,1151.983521 
	C318.344208,1151.809326 317.853241,1152.666504 317.983612,1154.317383 
	C318.075195,1155.476685 318.000092,1156.649170 318.000092,1157.815796 
	C318.000000,1249.813721 318.030273,1341.811646 317.909668,1433.809448 
	C317.903717,1438.354736 318.505890,1439.729248 323.777893,1440.283936 
	C339.871063,1441.977295 354.525635,1448.080688 367.489899,1457.987061 
	C385.122772,1471.460815 396.659851,1489.302246 400.599884,1510.766846 
	C405.644012,1538.246460 400.612610,1563.993408 382.256226,1586.427612 
	C368.847595,1602.814941 351.749084,1612.568237 331.618256,1617.701416 
	C328.955566,1618.380493 326.113159,1619.143433 323.454285,1618.875000 
	C318.765930,1618.401367 317.893341,1620.160645 317.900177,1624.556519 
	C318.034393,1710.887817 318.019684,1797.219116 317.937256,1883.550537 
	C317.933441,1887.538452 319.638885,1891.291382 319.023926,1895.303955 
	C318.755829,1897.053345 320.077698,1896.825684 321.253113,1897.038330 
	C331.725372,1898.932739 341.870575,1901.730835 351.392700,1906.745361 
	C376.530090,1919.983765 392.160461,1940.864624 397.683289,1968.207886 
	C402.531738,1992.212402 398.629730,2015.685913 384.749329,2036.463013 
	C371.079773,2056.924316 351.609528,2069.444824 327.713593,2074.912109 
	C319.086182,2076.885742 319.000000,2076.509033 319.000000,2084.958252 
	C319.000000,2172.789551 319.054230,2260.621338 318.852753,2348.452148 
	C318.841766,2353.249023 320.811615,2354.385498 324.637604,2355.018311 
	C348.620941,2358.984375 367.582794,2370.799072 382.202881,2390.386719 
	C396.708313,2409.820801 401.389313,2431.786133 398.725067,2454.994629 
	C395.835907,2480.162842 383.641846,2500.750244 362.936462,2516.072021 
	C350.585785,2525.211182 336.719238,2530.326416 321.819153,2532.808594 
	C318.706085,2533.327393 318.995239,2534.628174 318.996796,2536.600342 
	C319.004059,2545.766846 319.000000,2554.933350 319.000000,2564.099854 
	C319.000000,2645.097900 319.039124,2726.096191 318.895569,2807.093994 
	C318.887604,2811.601562 319.636932,2812.727051 324.565521,2813.251221 
	C340.847229,2814.984131 355.623413,2821.121338 368.697418,2831.180176 
	C386.136932,2844.597412 397.476837,2862.269287 401.533783,2883.568604 
	C405.866425,2906.314453 403.162048,2928.500977 390.680603,2948.966553 
	C380.952698,2964.917236 367.790527,2976.702881 350.983032,2984.448486 
	C342.184357,2988.502930 332.904999,2991.446533 323.154938,2991.857666 
	C319.539429,2992.010254 318.904388,2992.978271 318.920197,2996.337646 
	C319.058319,3025.669678 319.000000,3055.002441 319.000000,3084.335205 
	C319.000000,3156.833496 319.000000,3229.331787 319.000000,3301.830078 
	C319.000000,3310.739014 319.009583,3310.677490 327.559021,3312.007080 
	C349.619080,3315.438232 367.419464,3326.072021 381.803314,3343.148438 
	C392.974548,3356.411377 399.947968,3371.597168 401.752777,3388.476562 
	C404.377136,3413.020752 399.280701,3435.986084 383.603424,3455.978760 
	C370.126740,3473.165283 352.496063,3483.478760 331.603607,3488.710205 
	C328.936768,3489.377930 326.083801,3490.177734 323.439911,3489.867920 
	C318.813751,3489.325928 318.956146,3491.799805 318.958069,3495.066406 
	C319.010529,3584.230957 319.054932,3673.395996 318.842072,3762.559814 
	C318.831146,3767.144775 320.685577,3768.462158 324.252930,3768.956543 
	C345.606781,3771.914551 363.188568,3782.069580 377.264893,3797.957031 
	C388.451874,3810.583984 395.541046,3825.430664 398.062836,3842.388916 
	C401.526123,3865.676758 397.910034,3887.643066 384.825317,3907.213379 
	C370.594543,3928.498779 350.612305,3941.870361 324.974243,3945.962646 
	C320.927917,3946.608398 318.829285,3947.531006 318.835602,3952.708496 
	C319.035797,4116.538086 318.976807,4280.367676 319.116425,4444.197266 
	C319.120453,4448.915039 318.223114,4450.686523 313.278687,4450.100098 
	C309.169983,4449.612305 304.953552,4449.893555 300.792358,4450.043457 
	C298.649597,4450.120117 297.689148,4449.528809 297.974823,4447.274902 
	C298.120331,4446.126953 298.000000,4444.944824 298.000000,4443.778320 
	C298.000000,4280.615234 297.982513,4117.452637 298.079651,3954.289551 
	C298.082733,3949.095947 297.770782,3946.721436 291.182800,3945.595459 
	C277.506592,3943.257080 264.896515,3937.345947 253.885452,3928.458740 
	C248.361145,3924.000000 243.170135,3919.284180 238.745911,3913.250732 
z"/>
<path fill="#000000" opacity="1.000000" stroke="none" 
	d="
M159.135773,3293.414551 
	C158.037125,3291.597412 157.976776,3290.010010 157.978165,3288.341309 
	C158.007111,3253.529297 157.987823,3218.717529 158.009842,3183.905518 
	C158.014481,3176.577637 164.664703,3170.017090 172.057663,3170.007812 
	C190.712860,3169.984375 209.374100,3170.268066 228.019943,3169.849609 
	C234.282272,3169.709229 242.205292,3177.791748 242.149582,3183.994141 
	C241.838501,3218.636719 242.010376,3253.283447 241.992020,3287.928955 
	C241.987900,3295.709961 235.536865,3301.989502 227.601852,3301.995850 
	C210.612274,3302.009277 193.618408,3301.776611 176.635086,3302.102783 
	C169.190689,3302.245361 163.244476,3300.381836 159.135773,3293.414551 
z"/>
<path fill="#000000" opacity="1.000000" stroke="none" 
	d="
M519.193542,3170.000000 
	C537.318909,3170.000000 554.969299,3169.989990 572.619690,3170.004639 
	C580.781067,3170.011230 586.995422,3176.316895 586.997070,3184.581299 
	C587.004028,3218.883057 586.787903,3253.187012 587.182556,3287.484131 
	C587.259644,3294.185303 579.217224,3302.376709 572.546692,3302.180420 
	C554.578857,3301.651855 536.585144,3302.007324 518.601746,3301.996582 
	C509.206818,3301.990967 503.000702,3295.869385 503.000397,3286.641602 
	C502.999359,3253.005859 502.999847,3219.370361 503.000122,3185.734619 
	C503.000183,3176.074707 509.064789,3170.004395 519.193542,3170.000000 
z"/>
<path fill="#000000" opacity="1.000000" stroke="none" 
	d="
M242.000000,2804.808838 
	C241.995239,2815.363281 236.351105,2820.999756 226.258820,2821.000000 
	C208.774750,2821.000244 191.290665,2821.005371 173.806595,2820.997803 
	C164.090118,2820.993652 158.000229,2814.953857 158.000137,2805.346680 
	C157.999786,2771.544189 157.998184,2737.741455 158.001251,2703.938965 
	C158.002029,2695.282471 164.316422,2689.002686 173.015594,2689.000977 
	C191.165726,2688.997559 209.315872,2688.992920 227.466003,2689.003174 
	C235.686356,2689.008057 241.993530,2695.261719 241.995911,2703.427979 
	C242.005692,2737.063965 242.000000,2770.699951 242.000000,2804.808838 
z"/>
<path fill="#000000" opacity="1.000000" stroke="none" 
	d="
M242.000000,2322.000000 
	C242.000000,2331.823486 242.009369,2341.147217 241.997208,2350.470703 
	C241.986481,2358.687256 235.736053,2364.990234 227.570450,2364.996094 
	C209.422714,2365.009277 191.268677,2364.723389 173.130417,2365.138184 
	C166.025269,2365.300537 157.661270,2357.258789 157.776291,2349.666260 
	C158.290695,2315.709473 157.997543,2281.740479 158.001740,2247.775879 
	C158.002777,2239.424561 164.377823,2233.005371 172.675827,2233.002197 
	C190.990051,2232.995117 209.304276,2232.990479 227.618500,2233.004639 
	C235.777237,2233.010742 241.994278,2239.318115 241.997040,2247.577148 
	C242.005280,2272.218018 242.000000,2296.859131 242.000000,2322.000000 
z"/>
<path fill="#000000" opacity="1.000000" stroke="none" 
	d="
M242.000000,1770.103760 
	C242.000000,1803.389893 242.001663,1836.191528 241.998886,1868.993042 
	C241.998123,1877.932739 235.956009,1883.996704 227.047485,1883.998779 
	C209.231400,1884.003052 191.415314,1884.007690 173.599228,1883.996704 
	C164.206360,1883.990967 158.000717,1877.868164 158.000427,1868.640015 
	C157.999374,1834.672974 157.997330,1800.705811 158.001923,1766.738770 
	C158.003052,1758.406616 164.395432,1752.005005 172.714920,1752.001831 
	C189.864975,1751.995239 207.046188,1752.627441 224.154083,1751.778076 
	C235.437607,1751.217896 243.721863,1759.229614 242.000000,1770.103760 
z"/>
<path fill="#000000" opacity="1.000000" stroke="none" 
	d="
M242.000000,1375.000000 
	C242.000000,1395.146118 242.006424,1414.792358 241.996948,1434.438477 
	C241.992966,1442.678223 235.758453,1448.989624 227.602875,1448.995728 
	C209.455154,1449.009521 191.300827,1448.717407 173.162964,1449.140381 
	C165.999924,1449.307373 157.663254,1441.220825 157.776581,1433.698486 
	C158.288116,1399.741699 157.997742,1365.772827 158.001587,1331.808228 
	C158.002548,1323.440918 164.363556,1317.005981 172.643600,1317.002441 
	C190.957825,1316.994751 209.272034,1316.990845 227.586258,1317.004150 
	C235.744690,1317.010132 241.990601,1323.319458 241.996948,1331.544922 
	C242.007965,1345.863281 242.000000,1360.181641 242.000000,1375.000000 
z"/>
<path fill="#000000" opacity="1.000000" stroke="none" 
	d="
M198.000000,3643.000000 
	C208.156586,3643.000000 217.813202,3642.990723 227.469772,3643.002930 
	C235.686600,3643.013184 241.993637,3649.263672 241.995911,3657.428467 
	C242.005569,3691.892578 242.008423,3726.356445 241.993622,3760.820557 
	C241.990219,3768.715576 235.662827,3774.987793 227.720108,3774.994873 
	C209.572388,3775.011230 191.424622,3775.014893 173.276917,3774.993408 
	C164.237228,3774.982666 158.000992,3768.758789 158.000595,3759.819336 
	C157.999130,3725.854736 157.998154,3691.890137 158.001297,3657.925537 
	C158.002106,3649.278809 164.323090,3643.004395 173.025665,3643.000732 
	C181.183777,3642.997070 189.341888,3643.000000 198.000000,3643.000000 
z"/>
<path fill="#000000" opacity="1.000000" stroke="none" 
	d="
M163.395172,847.223145 
	C166.908554,844.342163 170.616150,843.909119 174.662872,843.941040 
	C192.153442,844.078796 209.645737,843.996460 227.137390,844.001526 
	C235.796127,844.004028 241.995529,850.089172 241.997208,858.609070 
	C242.003967,892.926025 242.005478,927.243042 241.995972,961.559998 
	C241.993713,969.736145 235.691208,975.991882 227.468079,975.996704 
	C209.476654,976.007263 191.476547,975.675293 173.498001,976.156433 
	C166.086960,976.354797 157.649323,968.349854 157.774246,960.518616 
	C158.305588,927.209656 158.103745,893.886658 157.894409,860.570557 
	C157.860855,855.229980 159.475677,851.072266 163.395172,847.223145 
z"/>
<path fill="#000000" opacity="1.000000" stroke="none" 
	d="
M170.565933,515.993042 
	C161.970490,513.189636 157.720596,508.076416 157.843903,498.157227 
	C158.255783,465.020874 157.997223,431.876221 158.001938,398.734741 
	C158.003113,390.403259 164.398224,384.004852 172.723907,384.001984 
	C191.043320,383.995636 209.362747,383.989624 227.682144,384.004761 
	C235.622070,384.011383 241.989685,390.288483 241.993240,398.147827 
	C242.008896,432.788147 242.012436,467.428497 241.990189,502.068817 
	C241.985367,509.553497 235.494400,515.981812 227.965118,515.991638 
	C208.979630,516.016479 189.994110,515.999451 170.565933,515.993042 
z"/>
<path fill="#000000" opacity="1.000000" stroke="none" 
	d="
M39.000519,976.000000 
	C33.337543,975.999939 28.170456,975.880188 23.013157,976.052856 
	C20.615717,976.133057 19.935244,975.412476 19.947329,973.002502 
	C20.042526,954.016113 19.954969,935.028931 20.022190,916.042358 
	C20.049200,908.413391 28.157818,900.817749 36.011070,900.932312 
	C51.663536,901.160583 67.322701,900.906128 82.976624,901.077271 
	C86.201935,901.112488 87.152580,900.316956 87.083282,897.013489 
	C86.859810,886.358948 86.874756,875.694336 87.076225,865.038940 
	C87.136734,861.838318 86.356056,860.884216 83.029373,860.916443 
	C64.877014,861.092163 46.720005,860.847351 28.569248,861.092224 
	C23.063540,861.166443 19.460316,859.045654 19.057478,852.599182 
	C18.711693,847.065613 22.258707,844.005676 28.452784,844.003113 
	C48.438900,843.994812 68.425705,844.097656 88.410858,843.958008 
	C98.138138,843.890076 104.658997,851.287231 104.895821,860.072998 
	C105.281624,874.385986 105.119431,888.718384 104.951653,903.039795 
	C104.862114,910.682495 97.587479,919.027466 87.312355,919.007751 
	C71.823174,918.978027 56.333202,919.074707 40.845238,918.933716 
	C37.929684,918.907166 36.837833,919.399048 36.909882,922.664978 
	C37.148605,933.485474 37.172249,944.318909 36.902016,955.138000 
	C36.813286,958.690308 38.154789,959.079102 41.148106,959.059448 
	C59.301384,958.940308 77.457947,959.153748 95.608566,958.903809 
	C100.869461,958.831360 104.953758,961.102539 104.879707,967.572754 
	C104.805809,974.029175 100.917145,976.163086 95.460472,976.092529 
	C76.809845,975.851257 58.154167,976.000000 39.000519,976.000000 
z"/>
<path fill="#000000" opacity="1.000000" stroke="none" 
	d="
M67.000000,2689.000000 
	C74.495140,2689.000000 81.492340,2689.107666 88.484924,2688.973877 
	C98.074226,2688.790283 104.677238,2696.268311 104.903572,2705.146729 
	C105.264229,2719.294189 105.006310,2733.458008 104.997459,2747.614746 
	C104.992607,2755.377930 97.629654,2764.064453 87.237938,2764.018066 
	C71.749016,2763.948730 56.258575,2764.090576 40.771145,2763.923340 
	C37.711979,2763.890381 36.853828,2764.608887 36.917339,2767.739258 
	C37.133507,2778.394043 37.154819,2789.059570 36.911255,2799.713379 
	C36.832081,2803.176270 37.663052,2804.132568 41.223301,2804.093018 
	C59.375111,2803.891357 77.532547,2804.156006 95.683052,2803.902100 
	C100.904594,2803.829102 104.988411,2806.184814 104.883888,2812.646484 
	C104.778915,2819.135254 100.712181,2821.121094 95.886414,2821.083984 
	C71.904503,2820.899902 47.919884,2820.923828 23.937651,2821.086426 
	C20.548355,2821.109375 19.905403,2820.062744 19.929865,2816.929199 
	C20.072876,2798.609619 19.973972,2780.288330 20.011305,2761.967773 
	C20.029186,2753.193359 27.262747,2746.026367 36.083824,2746.009033 
	C51.739544,2745.977783 67.396751,2745.890381 83.050072,2746.086670 
	C86.419762,2746.128906 87.130394,2745.100342 87.073288,2741.940186 
	C86.880753,2731.284424 86.853882,2720.619629 87.085983,2709.965576 
	C87.158867,2706.620117 86.139565,2705.899658 82.955635,2705.926270 
	C64.802856,2706.078369 46.646084,2705.847656 28.495380,2706.094238 
	C23.165087,2706.166504 19.387144,2704.044678 19.054590,2697.526123 
	C18.773293,2692.012695 22.314396,2689.006836 28.526648,2689.002686 
	C41.184425,2688.994141 53.842216,2689.000000 67.000000,2689.000000 
z"/>
<path fill="#000000" opacity="1.000000" stroke="none" 
	d="
M395.009399,2761.000000 
	C390.424988,2761.357910 384.980835,2759.163086 382.625610,2761.904297 
	C380.629150,2764.228271 382.028046,2769.510986 382.010315,2773.484619 
	C381.975403,2781.312500 382.158783,2789.145508 381.923401,2796.966309 
	C381.826630,2800.182861 382.661407,2801.114746 385.976715,2801.083008 
	C404.129150,2800.909180 422.286194,2801.152588 440.437012,2800.907959 
	C445.945465,2800.833984 449.785828,2802.970947 449.878693,2809.404053 
	C449.972076,2815.870605 445.878204,2818.144531 440.632538,2818.095947 
	C416.817688,2817.876953 392.999023,2817.912109 369.183533,2818.093750 
	C365.569550,2818.121338 364.883514,2817.066895 364.916534,2813.675049 
	C365.093384,2795.522705 364.983154,2777.367432 365.007111,2759.213379 
	C365.019104,2750.133057 372.197327,2743.018066 381.338135,2743.005859 
	C396.827393,2742.985107 412.318542,2742.872314 427.804626,2743.095215 
	C431.406586,2743.147217 432.161255,2742.101562 432.086029,2738.685059 
	C431.851471,2728.030762 431.859192,2717.365479 432.085999,2706.710693 
	C432.153778,2703.525879 431.202362,2702.904297 428.200684,2702.927979 
	C409.881165,2703.072266 391.557709,2702.841553 373.240662,2703.099609 
	C367.936829,2703.174072 363.921295,2700.574707 364.148590,2694.279297 
	C364.305206,2689.941406 366.787018,2685.771240 373.283966,2685.878418 
	C393.431183,2686.210938 413.587433,2686.019043 433.740112,2685.991699 
	C443.418976,2685.978271 449.599731,2693.300049 449.875153,2701.903809 
	C450.333252,2716.212646 450.072693,2730.547119 449.970673,2744.869873 
	C449.916046,2752.537598 442.652222,2760.997070 432.482452,2760.999512 
	C420.157593,2761.002197 407.832733,2761.000000 395.009399,2761.000000 
z"/>
<path fill="#000000" opacity="1.000000" stroke="none" 
	d="
M371.253418,399.000000 
	C364.686890,399.929871 360.842743,396.229553 361.163757,390.329224 
	C361.429718,385.440765 363.888550,381.756226 370.738800,381.876709 
	C390.554199,382.225281 410.382111,382.180817 430.200226,381.921600 
	C439.706390,381.797241 446.874695,389.375336 446.967194,398.862701 
	C447.097046,412.186859 446.614929,425.528259 447.135071,438.833344 
	C447.483185,447.737946 439.603394,457.180878 429.012268,457.048859 
	C413.690430,456.857849 398.363434,457.092010 383.041046,456.924988 
	C379.848358,456.890198 378.842224,457.631775 378.914459,460.969666 
	C379.145050,471.625000 379.121429,482.290680 378.925598,492.947418 
	C378.867279,496.122559 379.604309,497.118561 382.957672,497.085327 
	C401.111725,496.905334 419.270630,497.152832 437.423157,496.908020 
	C442.962860,496.833374 446.776276,498.974640 446.878204,505.391998 
	C446.980957,511.859131 442.882690,514.144531 437.643372,514.096252 
	C413.826233,513.876587 390.005249,513.912354 366.187469,514.093567 
	C362.578705,514.121033 361.882904,513.076538 361.916168,509.678223 
	C362.093994,491.524109 361.983032,473.367279 362.007111,455.211456 
	C362.019165,446.131592 369.199005,439.017731 378.342529,439.005646 
	C393.833282,438.985138 409.325958,438.871155 424.813507,439.095673 
	C428.428894,439.148071 429.159088,438.077332 429.085114,434.675537 
	C428.853455,424.020233 428.856293,413.353638 429.087341,402.698303 
	C429.156921,399.489655 428.164734,398.905792 425.187561,398.929504 
	C407.365997,399.071716 389.542755,399.000000 371.253418,399.000000 
z"/>
<path fill="#000000" opacity="1.000000" stroke="none" 
	d="
M78.990135,384.000000 
	C85.521996,384.660004 91.684456,382.646637 97.560677,386.737335 
	C102.576691,390.229156 104.723808,394.816772 104.869041,400.144531 
	C105.254662,414.290955 105.005577,428.454834 104.997742,442.611755 
	C104.993446,450.375336 97.631653,459.063568 87.240997,459.017731 
	C71.751938,458.949402 56.261402,459.089569 40.773827,458.923523 
	C37.720459,458.890808 36.852962,459.600311 36.916946,462.736389 
	C37.134327,473.391266 37.154278,484.056885 36.911484,494.710693 
	C36.832657,498.169434 37.657001,499.132874 41.220745,499.093231 
	C59.372688,498.891205 77.530266,499.155670 95.680908,498.901947 
	C100.903427,498.828979 104.986969,501.181763 104.883911,507.644745 
	C104.780342,514.139526 100.706573,516.121033 95.888176,516.084106 
	C71.906075,515.899963 47.921272,515.924072 23.938852,516.086365 
	C20.552027,516.109253 19.905132,515.066345 19.929682,511.930389 
	C20.073103,493.610779 19.973999,475.289398 20.011292,456.968750 
	C20.029154,448.193695 27.262394,441.026215 36.083149,441.008728 
	C51.738991,440.977661 67.396317,440.890625 83.049759,441.086884 
	C86.418671,441.129120 87.130508,440.101349 87.073341,436.940491 
	C86.880638,426.284637 86.853905,415.619965 87.085960,404.965668 
	C87.158813,401.620789 86.140022,400.899353 82.955841,400.926086 
	C64.802925,401.078369 46.646015,400.847839 28.495169,401.094269 
	C23.165646,401.166626 19.387178,399.046051 19.054602,392.525726 
	C18.773380,387.012268 22.314302,384.005493 28.527073,384.002625 
	C45.182182,383.994934 61.837303,384.000000 78.990135,384.000000 
z"/>
<path fill="#000000" opacity="1.000000" stroke="none" 
	d="
M73.990997,2250.000000 
	C58.335918,2250.000000 43.177528,2249.855225 28.024885,2250.086670 
	C23.376263,2250.157715 19.382538,2248.129150 19.048115,2241.555420 
	C18.775108,2236.188965 22.251892,2233.012207 27.997971,2233.007080 
	C48.150677,2232.989258 68.304024,2233.093262 88.455856,2232.959229 
	C98.082008,2232.895264 104.667984,2240.262207 104.900551,2249.117920 
	C105.272079,2263.264893 104.998802,2277.428955 105.000435,2291.585693 
	C105.001335,2299.357910 97.637337,2308.059082 87.266960,2308.016602 
	C71.777939,2307.953125 56.287617,2308.083984 40.799923,2307.927246 
	C37.798157,2307.896973 36.846085,2308.524658 36.913944,2311.710449 
	C37.140903,2322.364990 37.148441,2333.030273 36.914024,2343.684570 
	C36.838875,2347.100342 37.593658,2348.135742 41.194622,2348.094482 
	C59.179794,2347.887695 77.171593,2348.184570 95.154541,2347.896973 
	C101.217583,2347.800293 104.951988,2350.291260 104.870796,2356.618164 
	C104.788689,2363.017090 100.977615,2365.142090 95.415070,2365.091309 
	C71.766716,2364.876953 48.114418,2364.898193 24.465891,2365.103027 
	C20.650988,2365.135986 19.865108,2364.115479 19.906836,2360.457275 
	C20.111984,2342.471924 19.989599,2324.483154 20.004255,2306.495605 
	C20.011921,2297.086426 27.116562,2290.011719 36.555443,2290.003662 
	C52.044712,2289.990479 67.535271,2289.895508 83.022270,2290.083496 
	C86.337379,2290.123779 87.137314,2289.181152 87.077110,2285.967773 
	C86.874382,2275.145752 86.900322,2264.316162 87.067238,2253.492676 
	C87.111115,2250.647949 86.299683,2249.719971 83.479332,2249.946289 
	C80.500618,2250.185547 77.487808,2250.000000 73.990997,2250.000000 
z"/>
<path fill="#000000" opacity="1.000000" stroke="none" 
	d="
M506.832458,2291.669922 
	C511.064819,2288.375000 515.598572,2287.889893 520.444275,2287.942871 
	C534.937500,2288.101318 549.434448,2287.910156 563.927612,2288.071045 
	C567.064331,2288.105713 568.168640,2287.458740 568.089355,2284.059326 
	C567.844604,2273.568848 567.836609,2263.064941 568.089722,2252.574707 
	C568.176758,2248.968994 567.441711,2247.838379 563.561462,2247.891357 
	C545.571106,2248.136719 527.573425,2247.845703 509.583099,2248.092285 
	C504.048370,2248.168213 500.467865,2246.040283 500.057770,2239.607666 
	C499.705170,2234.076660 503.260162,2231.005859 509.449249,2231.003174 
	C529.442261,2230.994873 549.435974,2231.097168 569.427979,2230.958252 
	C579.104980,2230.890869 585.663513,2238.275635 585.898804,2247.099365 
	C586.276184,2261.250977 585.997803,2275.420166 586.000854,2289.581787 
	C586.002563,2297.354004 578.638550,2306.060059 568.261658,2306.016846 
	C552.767334,2305.952148 537.271667,2306.088867 521.778809,2305.924316 
	C518.731750,2305.891846 517.853271,2306.589355 517.916443,2309.733887 
	C518.133728,2320.559082 518.119995,2331.393311 517.923218,2342.219238 
	C517.867737,2345.267334 518.590149,2346.110840 521.731689,2346.082031 
	C540.057068,2345.914795 558.387024,2346.156250 576.710327,2345.900879 
	C581.932434,2345.828369 586.014832,2348.235840 585.882507,2354.678467 
	C585.750183,2361.118652 581.769592,2363.122070 576.848877,2363.083740 
	C553.025330,2362.898438 529.198364,2362.878418 505.375763,2363.118164 
	C501.343292,2363.158447 500.891510,2361.820557 500.923798,2358.364258 
	C501.088745,2340.705322 501.119019,2323.042725 500.929199,2305.384277 
	C500.870453,2299.918457 502.783813,2295.628662 506.832458,2291.669922 
z"/>
<path fill="#000000" opacity="1.000000" stroke="none" 
	d="
M401.000122,2346.000000 
	C413.991425,2346.000000 426.486115,2346.166260 438.972351,2345.914795 
	C443.673004,2345.820312 447.829681,2347.902832 447.893127,2354.439453 
	C447.955872,2360.901611 443.731628,2363.120117 439.096405,2363.084961 
	C415.114471,2362.902344 391.129700,2362.909912 367.147827,2363.095703 
	C363.481781,2363.124023 362.889313,2361.974121 362.920166,2358.639404 
	C363.088104,2340.486816 362.981964,2322.332031 363.007629,2304.177979 
	C363.020447,2295.112305 370.213898,2288.016846 379.373505,2288.005371 
	C394.696167,2287.985840 410.022034,2287.828857 425.339447,2288.113770 
	C429.449860,2288.190186 430.169983,2286.854248 430.083618,2283.150146 
	C429.842987,2272.829590 429.820465,2262.494873 430.096863,2252.176270 
	C430.194305,2248.538330 429.043304,2247.885010 425.665802,2247.917480 
	C407.513458,2248.092285 389.357086,2247.873047 371.205383,2248.078857 
	C365.878632,2248.139160 362.552521,2245.899902 362.057678,2239.734131 
	C361.615845,2234.228271 365.223328,2231.006836 371.316589,2231.003662 
	C391.136139,2230.993164 410.961395,2231.281982 430.772827,2230.880615 
	C440.650787,2230.680664 448.070099,2238.740967 448.017975,2248.433105 
	C447.946289,2261.756836 447.724457,2275.089111 448.100220,2288.402344 
	C448.337250,2296.799316 440.731018,2306.056885 430.448364,2306.015869 
	C414.959381,2305.954346 399.468750,2306.103516 383.981781,2305.916992 
	C380.674683,2305.877197 379.861481,2306.806885 379.922302,2310.028076 
	C380.126709,2320.850098 380.098999,2331.679688 379.933105,2342.503174 
	C379.889587,2345.341309 380.693756,2346.172607 383.514618,2346.064453 
	C389.168945,2345.847412 394.837494,2346.000000 401.000122,2346.000000 
z"/>
<path fill="#000000" opacity="1.000000" stroke="none" 
	d="
M376.460693,1809.000488 
	C392.906250,1809.000000 408.897949,1808.925903 424.887817,1809.064941 
	C427.947327,1809.091431 429.178558,1808.580811 429.094055,1805.100952 
	C428.835358,1794.446533 428.816559,1783.776978 429.099701,1773.123779 
	C429.198517,1769.406128 427.905823,1768.893799 424.612457,1768.923096 
	C406.457367,1769.084351 388.298553,1768.871826 370.144531,1769.084961 
	C365.260162,1769.142456 361.485687,1767.137207 361.052368,1760.672485 
	C360.682892,1755.160400 364.257019,1752.006470 370.381622,1752.003540 
	C390.370453,1751.994141 410.360077,1752.104248 430.347809,1751.955444 
	C440.196808,1751.882202 446.642303,1759.308472 446.889709,1768.014160 
	C447.296478,1782.327881 447.105286,1796.662720 446.957489,1810.986450 
	C446.878479,1818.640869 439.600861,1827.019897 429.362061,1827.005493 
	C414.037323,1826.984009 398.711365,1827.097900 383.388611,1826.922607 
	C380.095154,1826.884766 378.801392,1827.404053 378.900269,1831.123047 
	C379.183533,1841.776123 379.164459,1852.445801 378.906097,1863.100098 
	C378.821747,1866.578247 380.050720,1867.086670 383.111237,1867.064453 
	C401.266815,1866.933594 419.425934,1867.152954 437.579071,1866.904907 
	C442.869080,1866.832642 446.929779,1869.078613 446.881348,1875.545776 
	C446.832794,1882.034180 442.865997,1884.141968 437.486267,1884.093018 
	C413.834747,1883.877686 390.179474,1883.909546 366.527435,1884.094360 
	C362.838776,1884.123047 361.846558,1883.303955 361.897552,1879.517578 
	C362.130737,1862.197021 362.372894,1844.860229 361.848145,1827.552612 
	C361.571411,1818.424072 367.064056,1810.763428 376.460693,1809.000488 
z"/>
<path fill="#000000" opacity="1.000000" stroke="none" 
	d="
M448.072205,3235.711426 
	C443.524139,3242.921875 437.143036,3245.267334 429.123505,3245.089111 
	C414.802643,3244.770996 400.468872,3245.075439 386.142242,3244.938721 
	C383.133545,3244.909912 381.815308,3245.332031 381.902802,3248.870605 
	C382.170410,3259.693359 382.152161,3270.530029 381.908417,3281.354004 
	C381.834106,3284.654297 382.987122,3285.082275 385.866302,3285.062988 
	C404.191895,3284.939209 422.520203,3285.127197 440.844177,3284.916016 
	C445.792999,3284.858887 449.745605,3286.895264 449.882080,3293.316650 
	C450.018860,3299.753906 445.936615,3302.147461 440.715973,3302.098633 
	C416.893707,3301.874512 393.067566,3301.917236 369.244446,3302.090088 
	C365.717865,3302.115723 364.873901,3301.224121 364.910736,3297.733154 
	C365.102356,3279.575195 364.984131,3261.414551 365.006683,3243.254639 
	C365.018005,3234.134521 372.160248,3227.018799 381.305176,3227.005859 
	C396.799316,3226.983887 412.295319,3226.874268 427.786346,3227.094482 
	C431.365601,3227.145508 432.165253,3226.145752 432.087646,3222.700684 
	C431.847626,3212.043457 431.860229,3201.374512 432.085541,3190.716553 
	C432.152710,3187.539307 431.215973,3186.903076 428.204224,3186.927002 
	C409.878937,3187.073242 391.550537,3186.873535 373.226379,3187.078369 
	C367.853607,3187.138672 364.567780,3184.896240 364.058044,3178.750488 
	C363.601624,3173.247314 367.218048,3170.007080 373.304993,3170.003906 
	C393.297455,3169.993408 413.290833,3170.111328 433.282043,3169.953125 
	C443.251770,3169.874023 449.628845,3177.332764 449.884460,3185.953369 
	C450.308899,3200.268555 449.991394,3214.605957 450.008575,3228.933838 
	C450.011383,3231.261230 449.260803,3233.337891 448.072205,3235.711426 
z"/>
<path fill="#000000" opacity="1.000000" stroke="none" 
	d="
M50.009003,1867.000000 
	C65.664116,1867.000000 80.822517,1867.144409 95.975220,1866.913818 
	C100.649345,1866.842896 104.834412,1868.892822 104.893669,1875.442139 
	C104.952156,1881.907959 100.727425,1884.120239 96.093613,1884.084961 
	C72.111549,1883.902344 48.126656,1883.909668 24.144651,1884.095825 
	C20.473835,1884.124390 19.889828,1882.966064 19.920490,1879.636230 
	C20.087646,1861.483643 19.981827,1843.328735 20.007675,1825.174561 
	C20.020582,1816.110229 27.215298,1809.016846 36.376823,1809.005249 
	C51.699554,1808.985962 67.025543,1808.828003 82.342957,1809.114380 
	C86.460388,1809.191284 87.168587,1807.843506 87.083054,1804.146729 
	C86.844261,1793.826172 86.819870,1783.491333 87.097061,1773.172607 
	C87.194931,1769.529541 86.033989,1768.885620 82.662239,1768.917847 
	C64.509766,1769.091675 46.353310,1768.873169 28.201500,1769.078857 
	C22.883856,1769.139160 19.549435,1766.901367 19.057737,1760.730469 
	C18.618956,1755.223633 22.224400,1752.007080 28.320570,1752.003784 
	C48.140221,1751.993408 67.965591,1752.281860 87.777130,1751.880859 
	C97.647522,1751.681030 105.071419,1759.740967 105.018280,1769.437622 
	C104.945259,1782.761353 104.725266,1796.093506 105.099930,1809.407104 
	C105.336121,1817.800171 97.729431,1827.058350 87.443642,1827.016479 
	C71.954590,1826.953613 56.463814,1827.104736 40.976791,1826.916504 
	C37.660233,1826.876221 36.862923,1827.821045 36.922989,1831.032959 
	C37.125378,1841.855103 37.099846,1852.684814 36.932671,1863.508057 
	C36.888702,1866.354370 37.702496,1867.279541 40.521439,1867.053711 
	C43.499954,1866.814941 46.512447,1867.000000 50.009003,1867.000000 
z"/>
<path fill="#000000" opacity="1.000000" stroke="none" 
	d="
M66.000000,3285.000000 
	C76.326508,3285.000000 86.158554,3285.194580 95.977119,3284.915283 
	C100.651466,3284.782227 104.837227,3286.895264 104.893829,3293.444824 
	C104.949738,3299.914307 100.722733,3302.120117 96.090950,3302.084717 
	C72.109001,3301.902100 48.124203,3301.909424 24.142307,3302.095947 
	C20.467827,3302.124512 19.890236,3300.959717 19.920750,3297.633789 
	C20.087275,3279.481201 19.981754,3261.326416 20.007710,3243.172363 
	C20.020668,3234.108887 27.216145,3227.017090 36.379013,3227.005371 
	C51.701679,3226.986084 67.027634,3226.827148 82.344940,3227.114502 
	C86.467407,3227.191895 87.167625,3225.836914 87.082649,3222.144531 
	C86.845123,3211.823975 86.819618,3201.489258 87.097145,3191.170654 
	C87.195221,3187.524658 86.028580,3186.885986 82.660233,3186.918213 
	C64.507820,3187.091309 46.351452,3186.873291 28.199728,3187.079102 
	C22.885374,3187.139160 19.547264,3184.899170 19.057644,3178.728516 
	C18.620708,3173.221924 22.225466,3170.007080 28.322279,3170.003906 
	C48.141842,3169.993408 67.967102,3170.281738 87.778580,3169.881104 
	C97.648270,3169.681885 105.071533,3177.740967 105.018311,3187.438477 
	C104.945183,3200.762451 104.725426,3214.094482 105.099854,3227.407959 
	C105.335884,3235.800293 97.729324,3245.058350 87.442688,3245.016602 
	C71.953705,3244.953369 56.462990,3245.104980 40.976044,3244.916260 
	C37.657375,3244.875977 36.863216,3245.823975 36.923126,3249.033936 
	C37.125095,3259.855713 37.099930,3270.685547 36.932625,3281.508789 
	C36.888611,3284.355957 37.712246,3285.126953 40.519367,3285.065674 
	C48.842712,3284.882812 57.172642,3285.000000 66.000000,3285.000000 
z"/>
<path fill="#000000" opacity="1.000000" stroke="none" 
	d="
M87.000000,3664.137451 
	C87.657852,3660.383301 86.041458,3659.914795 83.144081,3659.935303 
	C64.990135,3660.063232 46.832798,3659.845215 28.681149,3660.086182 
	C22.547230,3660.167480 19.554461,3657.726318 19.066265,3651.708740 
	C18.605717,3646.031982 22.237177,3643.002686 28.841726,3643.001465 
	C48.662155,3642.997803 68.484093,3643.144531 88.302353,3642.937500 
	C97.897308,3642.837158 104.754700,3650.322754 104.932312,3659.464111 
	C105.194328,3672.950439 104.633408,3686.458740 105.130356,3699.931641 
	C105.455536,3708.747314 97.588608,3718.202881 86.915787,3718.054443 
	C71.595390,3717.841309 56.268372,3718.112305 40.947617,3717.912842 
	C37.572250,3717.868896 36.870399,3718.907471 36.927074,3722.062500 
	C37.118477,3732.718750 37.147316,3743.384033 36.913483,3754.038574 
	C36.839882,3757.392334 37.872860,3758.099609 41.048767,3758.073242 
	C59.202358,3757.922363 77.359917,3758.152344 95.511414,3757.905762 
	C100.852249,3757.833252 104.857544,3759.982910 104.882072,3766.478027 
	C104.906593,3772.970947 100.838737,3775.142334 95.556976,3775.094482 
	C71.741104,3774.878662 47.921928,3774.947754 24.104677,3775.064697 
	C21.034334,3775.079834 19.872032,3774.553955 19.908382,3771.095703 
	C20.102695,3752.609619 19.959280,3734.120605 20.018280,3715.632812 
	C20.045233,3707.187012 27.363245,3700.035156 35.920410,3700.011963 
	C51.410213,3699.970459 66.901550,3699.891113 82.389099,3700.082764 
	C85.908157,3700.126221 87.245041,3699.570312 87.114182,3695.599121 
	C86.774307,3685.283447 86.999992,3674.949707 87.000000,3664.137451 
z"/>
<path fill="#000000" opacity="1.000000" stroke="none" 
	d="
M93.032471,1317.532959 
	C100.582123,1319.829102 104.582199,1325.104492 104.864700,1333.292358 
	C105.352646,1347.435425 105.033180,1361.607544 104.986633,1375.767334 
	C104.961494,1383.416138 97.580986,1392.108521 87.079559,1392.029663 
	C71.754433,1391.914429 56.427048,1392.078979 41.102444,1391.933472 
	C38.024113,1391.904175 36.824299,1392.449219 36.907078,1395.909302 
	C37.162003,1406.564697 37.185490,1417.235229 36.899597,1427.889038 
	C36.799274,1431.627563 38.128235,1432.104004 41.401077,1432.075562 
	C59.557671,1431.917725 77.717842,1432.127441 95.873329,1431.915039 
	C100.718491,1431.858276 104.770859,1433.858765 104.883453,1440.343994 
	C104.995644,1446.805908 100.906593,1449.145996 95.689682,1449.097412 
	C71.869827,1448.875488 48.046124,1448.915283 24.225513,1449.091797 
	C20.669096,1449.118042 19.876894,1448.175049 19.912533,1444.715332 
	C20.099556,1426.559204 19.983812,1408.400269 20.006811,1390.242310 
	C20.018362,1381.124146 27.160944,1374.018677 36.314651,1374.005981 
	C51.807198,1373.984253 67.301598,1373.873535 82.791023,1374.094604 
	C86.375458,1374.145752 87.164337,1373.135132 87.087303,1369.697021 
	C86.848549,1359.040771 86.860161,1348.372925 87.085579,1337.716064 
	C87.152786,1334.538696 86.215576,1333.903076 83.204575,1333.927124 
	C64.881180,1334.072998 46.553802,1333.841064 28.232897,1334.099731 
	C22.930931,1334.174561 18.904799,1331.554565 19.150137,1325.268921 
	C19.320337,1320.908203 21.782511,1316.765869 28.298002,1316.882690 
	C49.773693,1317.267700 71.258453,1317.146973 93.032471,1317.532959 
z"/>
<path fill="#000000" opacity="1.000000" stroke="none" 
	d="
M415.991028,1332.000000 
	C400.335938,1332.000000 385.177551,1331.855347 370.024872,1332.086548 
	C365.375580,1332.157349 361.382965,1330.130371 361.048187,1323.555420 
	C360.774902,1318.188721 364.251434,1315.011963 369.998016,1315.006836 
	C390.150757,1314.988892 410.304077,1315.093506 430.455933,1314.959351 
	C440.080872,1314.895386 446.668182,1322.262451 446.900635,1331.118042 
	C447.271973,1345.265259 446.999023,1359.429321 447.000397,1373.586182 
	C447.001160,1381.358154 439.637543,1390.058838 429.266754,1390.016479 
	C413.777710,1389.953247 398.287354,1390.084106 382.799652,1389.927246 
	C379.797424,1389.896851 378.846069,1390.525146 378.913940,1393.710571 
	C379.140869,1404.364990 379.148468,1415.030640 378.914001,1425.684692 
	C378.838837,1429.100586 379.593964,1430.135986 383.194702,1430.094604 
	C401.179901,1429.887695 419.171692,1430.184570 437.154663,1429.897095 
	C443.218689,1429.800171 446.952271,1432.292114 446.870758,1438.618530 
	C446.788330,1445.018799 442.976715,1447.141479 437.414673,1447.091064 
	C413.766296,1446.876587 390.113983,1446.898193 366.465424,1447.103149 
	C362.649628,1447.136230 361.865204,1446.114258 361.906921,1442.456787 
	C362.111908,1424.471558 361.989594,1406.482788 362.004272,1388.495239 
	C362.011932,1379.086304 369.116821,1372.011475 378.555786,1372.003540 
	C394.045074,1371.990356 409.535645,1371.895386 425.022644,1372.083496 
	C428.338165,1372.123657 429.137238,1371.180420 429.077118,1367.967529 
	C428.874542,1357.145508 428.900299,1346.315674 429.067291,1335.492554 
	C429.111206,1332.647217 428.299072,1331.720215 425.479156,1331.946411 
	C422.500488,1332.185425 419.487762,1332.000000 415.991028,1332.000000 
z"/>
<path fill="#000000" opacity="1.000000" stroke="none" 
	d="
M416.985962,899.000000 
	C429.000000,899.000000 429.000000,899.000000 429.000000,887.520020 
	C429.000000,879.358948 428.847321,871.193604 429.076050,863.038940 
	C429.165955,859.833313 428.354034,858.884277 425.028656,858.916443 
	C406.876129,859.091980 388.718964,858.847412 370.568054,859.092285 
	C365.066254,859.166504 361.459167,857.046814 361.057404,850.597900 
	C360.712585,845.063171 364.257965,842.005676 370.454193,842.003113 
	C390.440491,841.994873 410.427460,842.097534 430.412781,841.958191 
	C440.136078,841.890381 446.659637,849.286743 446.896057,858.075195 
	C447.281067,872.388306 447.120087,886.720825 446.951385,901.042358 
	C446.861359,908.683899 439.587128,917.028015 429.309448,917.007874 
	C413.820129,916.977600 398.330017,917.075378 382.841949,916.933228 
	C379.920166,916.906433 378.838501,917.408142 378.910156,920.668274 
	C379.147949,931.489014 379.173187,942.322510 378.901642,953.141663 
	C378.812317,956.701172 380.164886,957.078247 383.151825,957.058838 
	C401.305237,956.940857 419.462006,957.153931 437.612762,956.903748 
	C442.870972,956.831238 446.957123,959.106812 446.879517,965.576965 
	C446.802063,972.030212 442.919586,974.141235 437.456451,974.091736 
	C413.807922,973.877563 390.155609,973.905823 366.506714,974.097229 
	C362.776703,974.127441 361.855286,973.241394 361.900665,969.498047 
	C362.120728,951.346497 361.977081,933.190796 362.009888,915.036621 
	C362.025787,906.232544 369.219696,899.035461 378.015289,899.009644 
	C390.839752,898.971985 403.664459,899.000000 416.985962,899.000000 
z"/>
<path fill="#000000" opacity="1.000000" stroke="none" 
	d="
M552.999634,1884.000000 
	C538.002808,1884.000000 523.505920,1884.014526 509.009003,1883.992798 
	C503.019043,1883.983887 500.016327,1881.130981 500.000031,1875.546631 
	C499.983582,1869.914795 502.961853,1867.015625 508.915619,1867.008057 
	C526.911804,1866.985352 544.908508,1866.930176 562.903687,1867.066895 
	C565.994751,1867.090332 567.194031,1866.532227 567.091919,1863.082275 
	C566.821045,1853.925537 567.034607,1844.755371 566.987366,1835.590942 
	C566.957703,1829.835815 564.039551,1827.025391 558.128967,1827.008301 
	C547.797913,1826.978271 537.466675,1827.000854 527.135559,1826.999634 
	C521.902893,1826.999023 516.057434,1823.094238 516.882019,1817.192871 
	C517.591675,1812.114014 520.068970,1809.047852 525.253418,1809.018799 
	C536.250732,1808.957397 547.248718,1809.024292 558.246338,1808.990234 
	C564.059326,1808.972168 566.964783,1806.080078 566.989746,1800.291870 
	C567.028442,1791.293945 566.827393,1782.290649 567.087524,1773.300171 
	C567.187378,1769.850586 566.362976,1768.866211 562.785767,1768.906250 
	C544.625244,1769.109619 526.461182,1769.006836 508.298401,1768.996094 
	C502.440125,1768.992676 499.257263,1766.131226 499.011780,1760.712646 
	C498.812683,1756.318115 503.347260,1752.005493 508.215881,1752.003540 
	C528.378296,1751.995117 548.540771,1752.037109 568.703003,1751.983765 
	C578.197632,1751.958618 584.516785,1759.143311 584.883972,1767.879883 
	C585.359375,1779.190796 585.179810,1790.541382 584.895203,1801.865112 
	C584.804688,1805.468750 584.532288,1809.362305 582.056763,1812.437378 
	C579.234314,1815.943481 579.122009,1819.114258 581.885376,1822.956787 
	C584.567200,1826.686157 585.175293,1831.224243 585.072876,1835.940552 
	C584.841309,1846.599976 585.026672,1857.267822 584.991760,1867.932129 
	C584.962524,1876.863770 577.902222,1883.936157 568.996155,1883.993896 
	C563.830811,1884.027344 558.665100,1884.000000 552.999634,1884.000000 
z"/>
<path fill="#000000" opacity="1.000000" stroke="none" 
	d="
M512.146545,514.000000 
	C503.190063,514.897461 499.794830,511.469177 499.872589,502.221863 
	C500.181976,465.425568 499.998352,428.625153 500.001404,391.826263 
	C500.001984,384.626526 502.566498,382.014587 509.623291,382.000916 
	C512.453979,381.995422 515.284912,381.975647 518.115295,382.005707 
	C522.511169,382.052429 525.135071,384.449860 525.944946,388.579529 
	C526.917480,393.538452 524.509827,397.989075 520.063599,398.863434 
	C517.775757,399.313263 517.999268,400.387360 517.999390,401.852814 
	C518.000488,417.837860 518.107849,433.824188 517.912781,449.806854 
	C517.871826,453.163818 519.453918,453.039978 521.814453,453.031555 
	C538.465271,452.972168 555.116516,453.000031 571.767578,453.000092 
	C572.766663,453.000092 573.771606,452.929352 574.763794,453.012238 
	C582.101196,453.625031 584.984802,456.796234 584.994995,464.307709 
	C585.012817,477.462036 584.831482,490.619568 585.075684,503.769379 
	C585.186890,509.754578 581.466064,514.339905 574.562195,514.176025 
	C553.926453,513.686218 533.271667,514.000000 512.146545,514.000000 
z"/>
<path fill="#000000" opacity="1.000000" stroke="none" 
	d="
M588.000000,3709.000000 
	C588.000000,3727.813965 588.005981,3746.127686 587.997192,3764.441650 
	C587.993591,3771.859375 584.859375,3774.998535 577.506653,3775.000244 
	C575.342285,3775.000488 573.177917,3775.012451 571.013611,3774.997559 
	C565.969849,3774.962646 562.703369,3772.621582 562.008972,3768.561279 
	C561.105774,3763.280029 563.199646,3759.405518 568.305725,3758.111328 
	C570.399780,3757.580322 569.980713,3756.465820 569.982544,3755.280762 
	C570.007996,3738.798340 569.910767,3722.314697 570.075623,3705.833984 
	C570.108215,3702.573486 568.344788,3702.986816 566.327148,3702.989014 
	C548.346252,3703.008057 530.361023,3702.775879 512.387085,3703.129150 
	C506.578308,3703.243408 503.175507,3699.790771 503.074585,3693.834473 
	C502.840424,3680.019775 502.884979,3666.197021 503.051697,3652.380615 
	C503.127777,3646.072021 506.838715,3642.756348 512.670837,3642.854004 
	C534.474854,3643.218994 556.288696,3642.998047 578.098816,3643.001465 
	C585.484558,3643.002686 587.981567,3645.504150 587.991821,3653.059082 
	C588.016907,3671.539307 588.000000,3690.019775 588.000000,3709.000000 
z"/>
<path fill="#000000" opacity="1.000000" stroke="none" 
	d="
M504.725098,965.233154 
	C499.779938,958.323425 501.235474,952.414856 507.870300,949.477783 
	C510.762695,948.197327 513.707947,949.330933 515.303772,950.359497 
	C529.071106,959.232422 544.365356,956.797546 559.304077,956.977966 
	C568.998840,957.095032 569.000000,957.000000 569.000000,947.191223 
	C569.000000,938.361328 568.835449,929.526794 569.086853,920.704102 
	C569.178162,917.499451 568.179016,916.894043 565.191101,916.928040 
	C551.031799,917.089172 536.868164,916.888367 522.709778,917.085571 
	C519.524841,917.129944 518.911316,916.197083 518.928772,913.198425 
	C519.059570,890.708069 519.071472,868.216003 518.918213,845.725891 
	C518.896790,842.575623 519.752686,841.901306 522.784973,841.925659 
	C541.276489,842.074463 559.769836,841.989014 578.262573,842.007812 
	C582.776123,842.012390 587.103577,846.353516 586.999512,850.673523 
	C586.875366,855.822998 583.617981,858.977295 578.267212,858.990295 
	C565.772156,859.020630 553.275513,859.105896 540.783020,858.924011 
	C537.742859,858.879700 536.853516,859.576721 536.915894,862.729370 
	C537.133423,873.720764 537.076294,884.720032 536.943298,895.714111 
	C536.912292,898.276367 537.546814,899.114563 540.226135,899.064941 
	C549.386047,898.895386 558.555298,899.176819 567.713074,898.956482 
	C579.946960,898.662109 586.938843,907.197571 586.987976,918.464417 
	C587.041016,930.626099 586.905579,942.789124 587.027710,954.949768 
	C587.139648,966.090942 580.051208,974.908630 567.865417,974.167542 
	C555.416321,973.410461 542.884949,973.932129 530.390503,974.022217 
	C520.922180,974.090515 513.264526,968.953674 504.725098,965.233154 
z"/>
<path fill="#000000" opacity="1.000000" stroke="none" 
	d="
M533.802917,2800.998047 
	C536.062256,2801.131348 536.004272,2799.926270 536.004028,2798.702637 
	C535.997314,2767.704102 535.960266,2736.705566 536.064697,2705.707520 
	C536.074280,2702.851074 534.671753,2702.962158 532.694641,2702.977539 
	C525.362122,2703.034424 518.028809,2703.021729 510.695953,2702.991943 
	C506.247772,2702.973633 503.239014,2699.947754 503.000092,2695.352539 
	C502.721558,2689.995361 505.411804,2686.122070 510.112946,2686.062988 
	C523.943420,2685.888428 537.778076,2686.070068 551.609680,2685.949707 
	C554.810120,2685.922119 553.976379,2687.990723 553.979858,2689.622559 
	C554.013306,2705.455078 554.000000,2721.287598 554.000000,2737.120117 
	C554.000000,2756.785889 554.084900,2776.452148 553.923340,2796.116455 
	C553.893555,2799.748291 554.444885,2801.235352 558.632263,2801.120361 
	C569.993652,2800.807861 570.000000,2801.038086 570.000000,2789.859863 
	C570.000000,2781.860352 569.980042,2773.860596 570.007019,2765.861084 
	C570.024902,2760.547607 572.961792,2757.969238 578.862976,2758.000000 
	C584.177185,2758.027588 586.989258,2760.795166 586.994690,2766.087158 
	C587.009827,2780.753174 587.011780,2795.418945 586.993408,2810.084961 
	C586.987183,2815.038330 584.087341,2817.988525 579.194824,2817.992432 
	C556.362610,2818.009766 533.530396,2818.009521 510.698212,2817.991699 
	C506.284210,2817.988281 501.807007,2813.437744 502.012512,2809.267334 
	C502.266602,2804.111084 505.514648,2801.029785 510.820709,2801.007812 
	C518.320129,2800.976807 525.819885,2801.000000 533.802917,2800.998047 
z"/>
<path fill="#000000" opacity="1.000000" stroke="none" 
	d="
M416.000000,3749.947754 
	C416.000031,3758.000000 416.000031,3758.000000 423.450378,3758.000000 
	C432.000000,3758.000000 432.000000,3758.000000 432.000000,3749.538574 
	C432.000000,3740.539307 431.971771,3731.540039 432.011475,3722.541016 
	C432.032349,3717.816162 435.117340,3715.023438 440.182831,3715.000488 
	C445.841095,3714.974854 448.972351,3717.538574 448.985352,3722.406494 
	C449.025421,3737.405273 449.017731,3752.404053 448.989349,3767.402832 
	C448.980621,3772.018555 446.005798,3774.985596 441.377106,3774.989990 
	C418.378998,3775.012207 395.380890,3775.012451 372.382782,3774.987793 
	C368.305328,3774.983398 363.970154,3770.488037 364.005585,3766.452148 
	C364.046661,3761.772705 367.534271,3758.063232 372.135529,3758.018799 
	C379.467590,3757.948242 386.804260,3757.870117 394.131836,3758.064453 
	C397.020050,3758.140869 398.103790,3757.644775 398.087555,3754.354004 
	C397.938782,3724.190430 397.929718,3694.025635 398.094025,3663.862305 
	C398.113312,3660.319824 396.850708,3659.858643 393.848206,3659.939941 
	C386.853912,3660.129395 379.850891,3660.018311 372.851562,3659.993896 
	C368.109253,3659.977295 365.147400,3656.935547 365.000031,3652.008789 
	C364.840240,3646.667480 367.592712,3643.095947 372.456055,3643.047363 
	C385.953613,3642.912842 399.455841,3643.144287 412.950806,3642.913818 
	C417.075897,3642.843506 415.975128,3645.404297 415.977081,3647.464355 
	C416.009308,3681.461670 416.000000,3715.458740 416.000000,3749.947754 
z"/>
<path fill="#000000" opacity="1.000000" stroke="none" 
	d="
M572.009521,1405.531006 
	C572.000732,1416.305054 572.002502,1426.628418 571.999329,1436.951660 
	C571.997192,1444.097290 569.442749,1446.977295 563.098511,1446.999878 
	C557.638123,1447.019409 554.073914,1443.080688 554.020874,1436.684204 
	C553.940735,1427.027588 553.849182,1417.366089 554.085571,1407.714600 
	C554.163391,1404.537109 553.217163,1403.891113 550.205994,1403.926270 
	C536.055054,1404.091919 521.899719,1403.897339 507.749207,1404.080322 
	C504.647247,1404.120361 503.906738,1403.321289 503.923370,1400.242188 
	C504.059448,1375.100708 504.022644,1349.958130 503.982574,1324.815918 
	C503.973572,1319.174316 507.389404,1314.203857 513.746094,1314.878174 
	C519.386414,1315.476440 521.995056,1317.964600 521.997437,1324.565430 
	C522.004456,1343.713501 522.083862,1362.862183 521.919373,1382.008789 
	C521.891174,1385.291748 522.771240,1386.173828 526.016968,1386.078979 
	C534.168640,1385.840454 542.334839,1385.879517 550.489258,1386.066040 
	C553.307556,1386.130493 554.097290,1385.335083 554.066223,1382.502319 
	C553.918213,1369.017090 554.049683,1355.528931 553.955261,1342.042847 
	C553.937805,1339.548096 554.264709,1337.175049 555.068542,1334.869995 
	C556.602173,1330.472778 560.279663,1328.261597 564.595154,1329.008911 
	C568.514893,1329.687622 571.992126,1333.878540 571.995483,1337.998901 
	C572.007263,1352.484741 572.047119,1366.970947 571.961365,1381.456299 
	C571.943665,1384.446777 571.943054,1386.673218 575.816406,1387.502930 
	C579.606262,1388.314697 579.832397,1391.825439 580.109375,1395.292603 
	C580.460815,1399.693481 578.225708,1401.919067 574.829956,1403.742065 
	C573.908203,1404.237061 572.318481,1403.330200 572.009521,1405.531006 
z"/>
<path fill="#FFFFFF" opacity="1.000000" stroke="none" 
	d="
M225.000000,3260.000000 
	C224.999924,3267.665527 224.902176,3274.832764 225.054352,3281.995117 
	C225.105530,3284.404297 224.390213,3285.069824 221.991669,3285.052734 
	C207.328293,3284.946777 192.663376,3284.946045 178.000031,3285.053467 
	C175.589066,3285.071045 174.943481,3284.378174 174.949463,3281.987793 
	C175.026306,3251.326660 175.026733,3220.665283 174.948853,3190.004150 
	C174.942749,3187.601318 175.609314,3186.929932 178.008209,3186.947266 
	C192.671585,3187.053223 207.338211,3187.134521 221.998810,3186.906494 
	C225.708771,3186.849121 224.991287,3188.970703 224.992371,3191.011719 
	C225.004456,3213.841064 224.999985,3236.670654 225.000000,3260.000000 
z"/>
<path fill="#FFFFFF" opacity="1.000000" stroke="none" 
	d="
M570.000000,3271.990723 
	C569.639404,3276.576660 571.840210,3282.024170 569.091553,3284.378906 
	C566.761353,3286.375244 561.478699,3284.979492 557.502319,3284.989746 
	C546.170898,3285.019043 534.837952,3284.906250 523.508728,3285.066162 
	C520.685120,3285.106201 519.927307,3284.321533 519.936768,3281.496094 
	C520.038391,3251.168213 520.037903,3220.839111 519.937317,3190.511230 
	C519.927979,3187.697021 520.667969,3186.905029 523.501282,3186.933838 
	C537.664185,3187.078125 551.830750,3187.106689 565.992676,3186.919678 
	C569.256470,3186.876465 570.094482,3187.744141 570.077759,3191.005615 
	C569.940063,3217.833984 570.000000,3244.663086 570.000000,3271.990723 
z"/>
<path fill="#FFFFFF" opacity="1.000000" stroke="none" 
	d="
M175.000000,2712.088379 
	C174.264389,2707.279785 175.662460,2705.737305 180.414734,2705.867920 
	C194.069839,2706.243164 207.742569,2706.068848 221.406799,2705.941406 
	C224.104019,2705.916260 225.080765,2706.460205 225.069656,2709.419678 
	C224.955872,2739.749756 224.967087,2770.080566 225.056503,2800.410889 
	C225.064453,2803.110352 224.533310,2804.105469 221.576157,2804.072510 
	C207.245926,2803.912354 192.910889,2803.870361 178.582382,2804.094727 
	C175.179230,2804.147705 174.939575,2802.832520 174.947617,2800.068604 
	C175.032288,2770.904785 175.000000,2741.740967 175.000000,2712.088379 
z"/>
<path fill="#FFFFFF" opacity="1.000000" stroke="none" 
	d="
M175.402924,2250.394043 
	C190.913528,2250.037598 206.080154,2250.114014 221.243347,2249.921143 
	C224.339600,2249.881592 225.089600,2250.666992 225.076584,2253.756836 
	C224.949371,2283.921387 224.948318,2314.087158 225.077744,2344.251709 
	C225.091095,2347.358643 224.313568,2348.117188 221.234787,2348.078613 
	C207.071091,2347.900391 192.902481,2347.894043 178.739044,2348.082275 
	C175.606293,2348.123779 174.912582,2347.279297 174.926285,2344.225342 
	C175.066055,2313.061279 175.038467,2281.896484 175.402924,2250.394043 
z"/>
<path fill="#FFFFFF" opacity="1.000000" stroke="none" 
	d="
M175.000000,1793.000000 
	C175.000061,1785.667847 175.101395,1778.833374 174.945633,1772.004761 
	C174.890656,1769.594727 175.610245,1768.929932 178.008438,1768.947266 
	C192.671844,1769.053101 207.336777,1769.054077 222.000153,1768.946655 
	C224.411148,1768.928955 225.056549,1769.621704 225.050568,1772.012207 
	C224.973694,1802.673462 224.973236,1833.335083 225.051193,1863.996338 
	C225.057312,1866.399414 224.389877,1867.070190 221.991669,1867.052856 
	C207.328262,1866.947021 192.661621,1866.865479 178.000992,1867.093384 
	C174.290695,1867.151245 175.008743,1865.029053 175.007690,1862.988159 
	C174.995605,1839.825439 175.000000,1816.662720 175.000000,1793.000000 
z"/>
<path fill="#FFFFFF" opacity="1.000000" stroke="none" 
	d="
M225.000000,1388.000000 
	C225.000000,1401.664429 224.886520,1414.830566 225.080276,1427.992065 
	C225.128326,1431.255249 224.261368,1432.124390 220.994446,1432.080444 
	C206.999374,1431.891724 192.998840,1431.891479 179.003784,1432.080811 
	C175.733383,1432.125122 174.908966,1431.245605 174.923126,1427.991089 
	C175.053543,1397.996826 175.053726,1368.001465 174.922897,1338.007202 
	C174.908707,1334.749512 175.738342,1333.875610 179.005463,1333.919556 
	C193.000519,1334.108276 207.001068,1334.108643 220.996124,1333.919434 
	C224.266281,1333.875244 225.113342,1334.751465 225.079300,1338.009277 
	C224.906952,1354.504639 225.000000,1371.002808 225.000000,1388.000000 
z"/>
<path fill="#FFFFFF" opacity="1.000000" stroke="none" 
	d="
M225.000000,3685.000000 
	C225.000000,3708.162842 224.902618,3730.826172 225.097000,3753.487549 
	C225.128967,3757.212402 224.255264,3758.169922 220.498703,3758.101074 
	C206.672424,3757.846924 192.837173,3757.891113 179.008789,3758.079834 
	C175.747711,3758.124268 174.908188,3757.259766 174.922501,3753.996094 
	C175.054108,3724.001709 175.053116,3694.006592 174.923569,3664.012207 
	C174.909531,3660.764404 175.723389,3659.874268 179.000519,3659.918945 
	C192.995514,3660.109619 206.996063,3660.107666 220.991135,3659.920166 
	C224.251740,3659.876709 225.206375,3660.727051 225.079651,3664.006592 
	C224.816055,3670.828613 224.999985,3677.667725 225.000000,3685.000000 
z"/>
<path fill="#FFFFFF" opacity="1.000000" stroke="none" 
	d="
M191.002563,959.000000 
	C185.526596,958.926575 178.832077,960.777466 176.026016,958.272522 
	C172.816589,955.407410 175.062164,948.586487 175.043671,943.495667 
	C174.949142,917.500366 175.086304,891.503845 174.903259,865.509460 
	C174.876999,861.779541 175.753815,860.830933 179.504120,860.899536 
	C193.330536,861.152588 207.165863,861.109314 220.994308,860.919556 
	C224.261154,860.874695 225.091339,861.749023 225.077133,865.007019 
	C224.946259,895.001404 224.946411,924.996948 225.076889,954.991394 
	C225.091034,958.246277 224.269470,959.156311 220.995163,959.081238 
	C211.168594,958.855713 201.333557,959.000000 191.002563,959.000000 
z"/>
<path fill="#FFFFFF" opacity="1.000000" stroke="none" 
	d="
M225.000000,482.997467 
	C224.926559,488.473389 226.777466,495.167938 224.272491,497.973999 
	C221.407455,501.183472 214.588486,498.884888 209.495255,498.956573 
	C199.165680,499.101929 188.830933,498.897614 178.502090,499.066803 
	C175.667145,499.113251 174.927917,498.304291 174.937271,495.489380 
	C175.037979,465.161407 175.038361,434.832825 174.936813,404.504852 
	C174.927368,401.681091 175.683945,400.905975 178.507416,400.934509 
	C192.670303,401.077545 206.836868,401.108124 220.998657,400.919067 
	C224.273712,400.875336 225.094559,401.761139 225.077148,405.011383 
	C224.938675,430.839722 225.000000,456.669128 225.000000,482.997467 
z"/>
<path fill="#FFFFFF" opacity="1.000000" stroke="none" 
	d="
M566.997925,494.803284 
	C567.132019,497.060364 565.929443,497.004883 564.706055,497.004181 
	C550.055542,496.995575 535.404846,496.955963 520.754883,497.046600 
	C518.567932,497.060120 517.909241,496.441101 517.951843,494.246674 
	C518.084229,487.423431 518.080261,480.594513 517.953491,473.771057 
	C517.913330,471.606018 518.520691,470.935425 520.737122,470.951477 
	C534.221497,471.049194 547.707092,470.972565 561.192017,471.017975 
	C564.955017,471.030640 566.948914,473.080963 566.985107,476.839325 
	C567.041199,482.665680 566.999878,488.492981 566.997925,494.803284 
z"/>
<path fill="#FFFFFF" opacity="1.000000" stroke="none" 
	d="
M521.000000,3675.974121 
	C521.078674,3670.506104 519.234009,3663.800293 521.742493,3661.014160 
	C524.614075,3657.825439 531.430115,3660.114502 536.525085,3660.041748 
	C546.520386,3659.899170 556.521179,3660.108154 566.515442,3659.931885 
	C569.377808,3659.881348 570.151062,3660.730957 570.064087,3663.529541 
	C569.862366,3670.021484 569.890137,3676.526855 570.056091,3683.020996 
	C570.118713,3685.469971 569.326294,3686.067627 566.965942,3686.050781 
	C552.637085,3685.948486 538.306702,3685.942383 523.977966,3686.054932 
	C521.534180,3686.074219 520.754761,3685.334961 520.960693,3682.962891 
	C521.147339,3680.812988 521.000061,3678.634033 521.000000,3675.974121 
z"/>
</svg>